<svg xmlns="http://www.w3.org/2000/svg" xmlns:se="http://svg-edit.googlecode.com" xmlns:xlink="http://www.w3.org/1999/xlink" xmlns:dc="http://purl.org/dc/elements/1.1/" xmlns:cc="http://creativecommons.org/ns#" xmlns:rdf="http://www.w3.org/1999/02/22-rdf-syntax-ns#" xmlns:inkscape="http://www.inkscape.org/namespaces/inkscape" width="777" height="480" style="">                                    <title>my vector image</title>                                    <!-- Created with Vector Paint - http://www.vectorpaint.yaks.com/ https://chrome.google.com/webstore/detail/hnbpdiengicdefcjecjbnjnoifekhgdo -->                                    <rect id="backgroundrect" width="100%" height="100%" x="0" y="0" fill="#FFFFFF" stroke="none"/>                                <g class="currentLayer" style=""><title>Layer 1</title><path fill="none" fill-opacity="1" stroke="#0075c4" stroke-opacity="1" stroke-width="8" stroke-dasharray="none" stroke-linejoin="round" stroke-linecap="butt" stroke-dashoffset="" fill-rule="nonzero" opacity="1" marker-start="" marker-mid="" marker-end="" id="svg_16" d="M-2.905252456665039,94.18421936035156 C -2.905252456665039,94.18421936035156,-2.228234052658081,94.87547302246094,10.25263786315918,94.18421936035156 45.9428825378418,92.20751190185547,75.01151275634766,81.6679916381836,117.48947143554688,70.5 157.3111572265625,60.030372619628906,195.19456481933594,49.75312805175781,258.9368591308594,34.973697662353516 299.40966796875,25.589584350585938,343.2524108886719,18.752227783203125,387.8842468261719,21.8157901763916 426.3129577636719,24.45356559753418,449.8600769042969,34.892662048339844,472.7526550292969,48.78947448730469 490.5368347167969,59.58526611328125,499.37603759765625,68.94906616210938,505.6474304199219,73.78947448730469 507.5252380371094,75.23881530761719,514.2000122070312,78.39474487304688,519.4631958007812,80.36842346191406 L 524.726318359375,81.68421936035156 529.3316040039062,83 531.9631958007812,83" style="color: rgb(0, 117, 196);" class=""/><path fill="none" fill-opacity="1" stroke="#0075c4" stroke-opacity="1" stroke-width="8" stroke-dasharray="none" stroke-linejoin="round" stroke-linecap="butt" stroke-dashoffset="" fill-rule="nonzero" opacity="1" marker-start="" marker-mid="" marker-end="" id="svg_15" d="M-4.22104012966156,384.9736785888672 C-4.22104012966156,384.9736785888672 -2.0470412969589233,385.98072814941406 0.38422262668609614,384.9736785888672 C10.699182152748108,380.7010955810547 21.740551590919495,359.7108917236328 56.96316206455231,312.6052703857422 C96.04603254795074,260.33705139160156 136.86950361728668,197.9390411376953 198.41053450107574,138.26316833496094 C241.64892256259918,96.33522033691406 287.52694380283356,69.65193176269531 333.93685591220856,58 C375.37350142002106,47.59668731689453 403.7019315958023,48.12580871582031 434.5947538614273,49.447364807128906 C457.68438398838043,50.43511199951172 485.4398466348648,61.64491271972656 499.7263151407242,76.42105102539062 C515.3683439493179,92.59921264648438 525.4457365274429,112.56568908691406 532.6210294961929,123.78948974609375 C540.5843473672867,136.24594116210938 546.8727995157242,145.14833068847656 551.0421110391617,150.76316833496094 C554.7422453165054,155.74620056152344 554.9894987344742,157.3421173095703 555.6473966836929,158.00001525878906 C555.6473966836929,158.00001525878906 556.4191251993179,159.8768310546875 556.9631315469742,160.631591796875 C557.8233000040054,161.8250274658203 557.9228483438492,162.40357971191406 558.2789274454117,163.26316833496094 C558.5306974649429,163.87098693847656 557.9627653360367,165.26234436035156 558.2789274454117,167.21054077148438 C558.6121793985367,169.2641143798828 558.9368253946304,170.50001525878906 558.9368253946304,171.81581115722656 C558.9368253946304,172.47369384765625 558.9368253946304,173.131591796875 558.9368253946304,173.131591796875 C558.9368253946304,176.4210662841797 560.4663053750992,180.96597290039062 562.2263151407242,187.6052703857422 C564.4753996133804,196.08961486816406 568.8052946329117,217.86842346191406 576.7000089883804,240.8947296142578 L591.8316007852554,271.81578063964844 L620.7789274454117,328.3947296142578 L637.2263151407242,356.68421936035156 " style="color: rgb(0, 117, 196);" class=""/><path fill="none" fill-opacity="1" stroke="#0075c4" stroke-opacity="1" stroke-width="8" stroke-dasharray="none" stroke-linejoin="round" stroke-linecap="butt" stroke-dashoffset="" fill-rule="nonzero" opacity="1" marker-start="" marker-mid="" marker-end="" id="svg_14" d="M99.06844329833984,533.0000152587891 C99.72632598876953,533.0000152587891 116.32097625732422,514.6931304931641 156.3052749633789,487.6052703857422 C196.09993743896484,460.64588928222656 248.9173812866211,434.04454040527344 298.4105453491211,421.81581115722656 C368.5616683959961,404.48292541503906 437.04927825927734,397.1600799560547 529.3315963745117,406.68421936035156 C594.6588668823242,413.4264373779297 641.4296188354492,493.8199005126953 713.542106628418,452.07896423339844 C803.4441452026367,400.04087829589844 730.2587203979492,310.0319366455078 728.673698425293,298.13157653808594 C726.9279098510742,285.02381896972656 726.3007736206055,284.77410888671875 728.673698425293,275.1052703857422 C730.5090866088867,267.62672424316406 732.7182540893555,263.9582824707031 733.9368209838867,260.631591796875 C735.3679733276367,256.7245635986328 736.2351608276367,254.79043579101562 736.5684127807617,252.73684692382812 C736.9899215698242,250.13925170898438 736.5684127807617,248.7894744873047 736.5684127807617,247.47369384765625 C736.5684127807617,247.47369384765625 736.5684127807617,247.47369384765625 736.5684127807617,247.47369384765625 L736.5684127807617,247.47369384765625 " style="color: rgb(0, 117, 196);" class="selected"/><polyline fill="none" stroke="#0075c4" stroke-width="8" stroke-linejoin="round" stroke-dashoffset="" fill-rule="nonzero" marker-start="" marker-mid="" marker-end="" id="svg_7" points="-10.142095565795898,153.3947296142578 -10.142095565795898,153.3947296142578 -9.484201431274414,153.3947296142578 1.0421142578125,153.3947296142578 69.46317100524902,153.3947296142578 137.2263240814209,154.05262756347656 243.14738273620605,159.9736785888672 345.778959274292,161.94737243652344 437.8842144012451,161.94737243652344 520.7789287567139,161.94737243652344 609.5947551727295,148.7894744873047 666.8316326141357,133 695.778959274292,121.81578063964844 714.2000408172607,112.60525512695312 724.0684490203857,106.02630615234375 730.6474285125732,100.76315307617188 733.278959274292,98.13157653808594 733.278959274292,96.15789794921875 733.9368572235107,88.92105102539062 734.5947551727295,76.42105865478516 735.2526531219482,67.86842346191406 735.2526531219482,63.263160705566406 735.2526531219482,56.02632141113281 732.6211223602295,49.44737243652344 729.3316326141357,46.15789794921875 726.042142868042,42.86842346191406 724.0684490203857,41.552635192871094 720.1211223602295,39.578948974609375 717.4895305633545,38.921058654785156 711.5684490203857,38.263160705566406 700.3842449188232,36.28947448730469 695.1211223602295,36.28947448730469 688.542142868042,35.63158416748047 683.9368572235107,35.63158416748047 678.0158367156982,35.63158416748047 672.0947551727295,35.63158416748047 668.805326461792,36.28947448730469 664.8579387664795,36.28947448730469 662.8842449188232,36.94737243652344 661.5684490203857,37.60527038574219 660.910551071167,37.60527038574219 660.910551071167,38.263160705566406 660.2526531219482,38.263160705566406 658.278959274292,39.578948974609375 654.9895305633545,42.210533142089844 645.778959274292,50.763160705566406 639.8579387664795,57.34210968017578 633.278959274292,65.23684692382812 628.0158367156982,72.47368621826172 621.4368572235107,80.3684310913086 616.173734664917,88.26315307617188 608.9368572235107,100.76315307617188 604.9895305633545,108 601.7000408172607,115.89472961425781 600.3842449188232,121.81578063964844 599.0684490203857,129.7105255126953 598.410551071167,139.57894897460938 597.7526531219482,152.07894897460938 597.0947551727295,173.13157653808594 597.0947551727295,194.84210205078125 597.0947551727295,215.23684692382812 599.7263469696045,233 603.673734664917,250.76318359375 614.2000408172607,278.3947448730469 622.7526531219482,296.15789794921875 628.673734664917,305.3684387207031 636.5684490203857,315.8947448730469 640.5158367156982,319.8421325683594 647.0947551727295,325.76318359375 651.042142868042,328.3947448730469 654.3316326141357,330.3684387207031 659.5947551727295,332.3421325683594 " style="color: rgb(0, 117, 196);" class=""/><polyline fill="none" stroke="#0075c4" stroke-width="8" stroke-linejoin="round" stroke-dashoffset="" fill-rule="nonzero" marker-start="" marker-mid="" marker-end="" id="svg_9" points="620.7789649559193,208.6578997644362 620.7789649559193,208.6578997644362 " style="color: rgb(0, 117, 196);"/><polyline fill="none" stroke="#0075c4" stroke-width="8" stroke-linejoin="round" stroke-dashoffset="" fill-rule="nonzero" marker-start="" marker-mid="" marker-end="" id="svg_10" points="2.3579045641786784,369.8421123133473 2.3579045641786784,369.8421123133473 3.015799309276275,369.8421123133473 7.621062524959452,367.8684280780546 13.542115230837817,363.921059607469 53.673694681791204,346.1579014898338 90.51580040725659,333.0000065878819 126.70001138762439,325.1052696467108 164.857906603285,319.1842169408324 233.93685483853258,311.9473747447588 318.8052769561225,307.3421115290757 416.1736992305668,307.3421115290757 473.4105420540576,311.9473747447588 537.2263323285246,327.07895388200353 567.4894906030139,336.9473750584675 591.1737014265274,345.50000674473625 610.9105437794553,354.7105331761026 623.4105439363096,361.28948062707855 631.3052808774808,366.55263858785935 637.8842283284567,370.5000070584449 640.5158073088471,372.4736912937378 641.8315967990424,373.7894807839329 647.7526495049207,377.73684925451846 651.7000179755063,379.71053348981127 653.0158074657015,380.36842823490883 654.9894917009942,381.684217725104 655.6473864460919,382.34211247020164 655.6473864460919,383.0000072152992 655.6473864460919,383.0000072152992 655.6473864460919,382.34211247020164 656.3052811911895,382.34211247020164 " style="color: rgb(0, 117, 196);"/><path fill="none" fill-opacity="1" stroke="#0075c4" stroke-opacity="1" stroke-width="8" stroke-dasharray="none" stroke-linejoin="round" stroke-linecap="butt" stroke-dashoffset="" fill-rule="nonzero" opacity="1" marker-start="" marker-mid="" marker-end="" id="svg_13" d="M789.200021982193,86.94737553596497 C789.200021982193,86.94737553596497 788.485666513443,86.56608128547668 787.2263281345367,86.94737553596497 C778.1451513767242,89.69693303108215 762.8615210056305,102.70769810676575 751.0421240329742,111.94737553596497 C741.813791513443,119.16150975227356 737.262277841568,122.52595829963684 728.6737158298492,128.3947479724884 C700.5011084079742,147.6458466053009 669.6119482517242,169.42633366584778 653.6737158298492,179.0526306629181 C630.2031347751617,193.22825932502747 597.1698095798492,209.60205388069153 582.6210424900055,213.2631561756134 C565.596994638443,217.54715275764465 549.2467138767242,221.83960270881653 537.8842260837555,224.44737553596497 C526.1829931735992,227.13289189338684 516.1736853122711,228.3947479724884 507.6210730075836,229.71052861213684 C499.068430185318,231.02632451057434 484.63273072242737,233.30057072639465 475.3842260837555,234.31579899787903 C466.8575232028961,235.25178837776184 460.2526342868805,234.97369694709778 453.6736853122711,234.97369694709778 C447.7526342868805,234.97369694709778 441.83158326148987,234.97369694709778 437.8842260837555,234.97369694709778 C432.6210730075836,234.97369694709778 426.50980591773987,234.9416687488556 423.41053223609924,233.65790104866028 C421.21903443336487,232.7501404285431 419.46317505836487,231.6842224597931 418.14737915992737,231.02632451057434 C416.83158326148987,230.3684265613556 416.2896521091461,230.04852604866028 414.85791993141174,229.71052861213684 C413.57731080055237,229.4082214832306 412.1762487888336,229.30440068244934 411.568430185318,229.0526306629181 C410.7088415622711,228.69658207893372 410.2526342868805,228.3947479724884 410.2526342868805,227.73685002326965 C410.2526342868805,227.73685002326965 410.2526342868805,227.73685002326965 410.2526342868805,227.73685002326965 L410.2526342868805,227.0789520740509 " style="color: rgb(0, 117, 196);" class=""/><path fill="none" fill-opacity="1" stroke="#0075c4" stroke-opacity="1" stroke-width="8" stroke-dasharray="none" stroke-linejoin="round" stroke-linecap="butt" stroke-dashoffset="" fill-rule="nonzero" opacity="1" marker-start="" marker-mid="" marker-end="" id="svg_13" d="M788.5421528816223,83.00000286102295 C788.5421528816223,83.6579008102417 788.5421528816223,83.6579008102417 788.5421528816223,84.97368907928467 C788.5421528816223,86.94737529754639 789.1904072761536,89.61097240447998 788.5421528816223,96.1579008102417 C787.5504536628723,106.1727705001831 783.8562397956848,122.63162517547607 779.9894795417786,135.63158702850342 C774.8288350105286,152.9814100265503 767.7695698738098,166.04511547088623 760.2526631355286,179.7105360031128 C750.7349629402161,197.01337718963623 740.4462056159973,216.14293956756592 723.4105610847473,238.26316356658936 C708.0407490730286,258.22039318084717 644.9394917488098,305.00200939178467 607.6210713386536,323.1315870285034 C564.7194600105286,343.9735059738159 536.8248066902161,353.60256481170654 500.38422441482544,363.92104625701904 C457.2421040534973,376.13714122772217 422.13645219802856,382.6307325363159 395.7789692878723,386.28948497772217 C364.90302324295044,390.5754346847534 349.0779194831848,391.2236280441284 331.9631733894348,391.55263805389404 C322.75434160232544,391.72967052459717 315.51581621170044,391.55263805389404 310.25263261795044,391.55263805389404 C306.9631733894348,391.55263805389404 305.6473774909973,391.55263805389404 304.98947954177856,390.8947401046753 C304.98947954177856,390.8947401046753 304.98947954177856,390.8947401046753 304.98947954177856,390.8947401046753 L304.98947954177856,390.8947401046753 L304.98947954177856,390.23684215545654 L304.98947954177856,390.23684215545654 " style="color: rgb(0, 117, 196);" class=""/></g></svg>