<svg xmlns="http://www.w3.org/2000/svg" xmlns:se="http://svg-edit.googlecode.com" xmlns:xlink="http://www.w3.org/1999/xlink" xmlns:dc="http://purl.org/dc/elements/1.1/" xmlns:cc="http://creativecommons.org/ns#" xmlns:rdf="http://www.w3.org/1999/02/22-rdf-syntax-ns#" xmlns:inkscape="http://www.inkscape.org/namespaces/inkscape" width="777" height="480" style="">                                    <title>my vector image</title>                                    <!-- Created with Vector Paint - http://www.vectorpaint.yaks.com/ https://chrome.google.com/webstore/detail/hnbpdiengicdefcjecjbnjnoifekhgdo -->                                    <rect id="backgroundrect" width="100%" height="100%" x="0" y="0" fill="#FFFFFF" stroke="none"/>                                <g class="currentLayer" style=""><title>Layer 1</title><path fill="none" fill-opacity="1" stroke="#3db1ff" stroke-opacity="1" stroke-width="8" stroke-dasharray="none" stroke-linejoin="round" stroke-linecap="butt" stroke-dashoffset="" fill-rule="nonzero" opacity="1" marker-start="" marker-mid="" marker-end="" id="svg_6" d="M-17.378937244415283,355.36841785907745 C-16.72104263305664,355.36841785907745 -14.704908847808838,356.18601429462433 -6.852621078491211,355.36841785907745 C5.852695465087891,354.04551136493683 29.989482879638672,342.2105199098587 43.14738082885742,335.63157093524933 C62.884220123291016,325.76316273212433 102.4753303527832,303.5497227907181 118.14738082885742,291.5526524782181 C139.36101913452148,275.31345570087433 169.65508651733398,246.96903431415558 183.27895736694336,229.71053516864777 C201.2981834411621,206.88405811786652 215.79995346069336,184.01397144794464 220.1210594177246,171.15789234638214 C230.28847885131836,140.9079076051712 230.74364852905273,117.59935963153839 228.01580429077148,104.71052753925323 C226.11845016479492,95.7456990480423 220.4418601989746,89.7393513917923 212.88422775268555,88.26316273212433 C195.43854904174805,84.85560047626495 171.09698104858398,88.97905933856964 154.33158493041992,94.18421375751495 C132.0465202331543,101.10306751728058 106.17556381225586,118.48256123065948 95.12106704711914,131.68421375751495 C73.07268142700195,158.01514637470245 61.98624038696289,178.6166936159134 58.27895736694336,194.8421117067337 C52.51698684692383,220.0601292848587 57.783084869384766,250.37900745868683 76.04211807250977,283.6579076051712 C97.64509963989258,323.03147327899933 140.22460556030273,377.23597157001495 179.33158493041992,406.68421375751495 C224.96100997924805,441.0439854860306 270.47748947143555,461.6169835329056 314.20002365112305,469.18421375751495 C349.9483451843262,475.37131702899933 383.2789726257324,471.81580555438995 420.1210746765137,461.2894688844681 L459.5947380065918,441.5526524782181 L498.4105644226074,417.86841785907745 L502.3578910827637,414.57895863056183 " style="color: rgb(61, 177, 255);" class=""/><path fill="none" fill-opacity="1" stroke="#3db1ff" stroke-opacity="1" stroke-width="8" stroke-dasharray="none" stroke-linejoin="round" stroke-linecap="butt" stroke-dashoffset="" fill-rule="nonzero" opacity="1" marker-start="" marker-mid="" marker-end="" id="svg_5" d="M210.15591870807523,258.7242323693589 C210.15591870807523,258.7242323693589 218.0609164868097,259.1806391081444 233.32088199741023,252.78449748613264 C259.79723942504506,241.6870771536486 281.3831428528324,229.77738232275613 304.59767304365096,212.39430579068892 C335.0414765780265,189.59796705663382 355.8185220142336,165.85365788764636 383.59610015135377,150.02710329305035 C411.3160936169338,134.23333614301544 430.48126419455775,131.4448328642792 448.33923517574704,131.6139361760387 C469.2035668509202,131.8115011938752 491.6904086398031,140.5273407423482 520.2099749130834,160.71863434859995 C551.932406127919,183.17745527099657 567.9368119449032,203.89462918028664 573.6676164145942,210.61239083621592 C583.5410456233953,222.18626233262682 589.3307021784499,225.89347531846022 582.5772049631964,234.37131659288377 C575.7731765098547,242.9125836634247 564.5927681244143,241.0615808793408 554.6604317253009,245.06283387219617 C548.0033130655725,247.7446539699739 543.1975002671466,249.11437013087004 542.1869857152783,251.00256875542243 C541.9067219454669,251.52625863674427 542.6069956353535,251.77051132248732 542.1869857152783,252.19052124256257 C541.3470209800766,253.03048597776422 529.7135948102045,252.19052124256257 516.0521963130418,252.19052124256257 C498.82694035445866,252.19052124256257 483.97180335052735,252.6034501767116 444.18140147075655,253.97244997327277 C398.4377915477676,255.546247312206 349.14569844408516,255.75435115150856 328.9505888201261,255.75435115150856 C307.5675267090269,255.75435115150856 298.60484454221523,256.03783856082725 291.5302507900583,254.56642621684284 C289.1325518085109,254.06772642982094 286.75546207783054,253.68700633827018 284.99653966326196,253.97244997327277 C283.14250610699173,254.27332299395118 282.1015736233626,255.28372733592175 277.2749036017999,258.13025612578883 C272.0073664370252,261.2367700642934 252.62723145396785,269.0728591045007 216.0956535913015,296.1445428469523 C197.45954562751152,309.9548073634122 170.21458437342565,335.80966362553033 157.88625724617899,349.60215679598866 C149.47060190652385,359.0172781452692 143.87590666047302,368.43182089258687 139.47307635293012,377.5189024814098 C134.95000704701354,386.85414920734354 133.53334146970386,392.36822591323823 132.34538898256372,397.12000830932436 L132.34538898256372,399.49591328360464 L132.34538898256372,400.0898895271747 " style="color: rgb(61, 177, 255);" class="" transform="rotate(115.96125030517578 358.9212341308593,265.848388671875) "/><path fill="none" fill-opacity="1" stroke="#3db1ff" stroke-opacity="1" stroke-width="8" stroke-dasharray="none" stroke-linejoin="round" stroke-linecap="butt" stroke-dashoffset="" fill-rule="nonzero" opacity="1" marker-start="" marker-mid="" marker-end="" id="svg_5" d="M95.77894842624664,211.94737815856934 C95.77894842624664,211.94737815856934 96.4368463754654,211.94737815856934 97.7526422739029,211.94737815856934 C106.30526983737946,211.94737815856934 138.73002874851227,209.02707481384277 184.59474432468414,200.1052761077881 C251.34894049167633,187.1199550628662 282.15301764011383,181.36057090759277 330.6473718881607,165.8947353363037 C351.48288214206696,159.24986839294434 377.50665533542633,148.2172908782959 397.75265753269196,135.63158226013184 C414.9649683237076,124.93173027038574 432.6058374643326,105.35221672058105 454.98947393894196,84.31579399108887 C491.7570825815201,49.76113700866699 536.5057398080826,25.91657066345215 583.2789331674576,33.65789794921875 C638.9663110971451,42.87458610534668 653.8941675424576,66.27963066101074 666.1737085580826,76.42105674743652 C680.9193140268326,88.59913444519043 685.5502344369888,91.85150718688965 691.1737085580826,96.81579399108887 C693.9637476205826,99.27876853942871 695.7789331674576,100.76315879821777 697.0947290658951,101.42105674743652 L697.0947290658951,101.42105674743652 L698.4105249643326,102.07895469665527 L699.7263208627701,104.05263328552246 " style="color: rgb(61, 177, 255);" class=""/><polyline fill="none" stroke="#0075c4" stroke-width="8" stroke-linejoin="round" stroke-dashoffset="" fill-rule="nonzero" marker-start="" marker-mid="" marker-end="" id="svg_8" points="528.6736698150635,50.76316785812378 528.6736698150635,50.76316785812378 528.6736698150635,52.73684644699097 524.0683841705322,59.97368574142456 517.489465713501,71.81580305099487 512.8841800689697,80.36843061447144 506.963098526001,94.18421125411987 505.6473026275635,97.47368574142456 504.989465713501,100.1052622795105 504.989465713501,101.421058177948 504.989465713501,101.421058177948 507.6209964752197,102.07895612716675 517.489465713501,102.07895612716675 529.331506729126,102.07895612716675 538.5420780181885,102.07895612716675 550.3841800689697,102.07895612716675 554.989465713501,103.39473676681519 557.6209964752197,106.02632856369019 558.2788944244385,116.55263471603394 551.0420780181885,146.81580305099487 539.1999759674072,177.73683881759644 529.331506729126,204.71051740646362 520.1209964752197,235.63156843185425 516.8315677642822,250.7631754875183 514.857873916626,258.6579203605652 514.857873916626,261.9473795890808 516.8315677642822,262.60524702072144 530.6473026275635,259.97368574142456 553.6736698150635,250.10524702072144 572.094690322876,242.86843061447144 585.2525882720947,238.2631754875183 592.489465713501,236.289466381073 603.6736698150635,236.289466381073 605.6473026275635,243.52629804611206 606.3052616119385,267.2105326652527 601.0420780181885,297.4737162590027 594.463098526001,319.8421244621277 591.8315677642822,328.3947672843933 588.5420780181885,340.8947672843933 587.226282119751,344.8421244621277 587.226282119751,346.1579203605652 587.226282119751,346.81581830978394 590.5157718658447,346.1579203605652 597.094690322876,344.18422651290894 604.989465713501,341.55266523361206 609.594690322876,340.23686933517456 613.5420780181885,339.5789713859558 614.857873916626,339.5789713859558 616.1736698150635,340.23686933517456 616.1736698150635,355.36846113204956 615.5157108306885,377.73686933517456 614.1999759674072,396.81581830978394 613.5420780181885,410.63161420822144 613.5420780181885,421.1579203605652 613.5420780181885,427.0789713859558 613.5420780181885,429.7105631828308 614.1999759674072,431.0263285636902 616.8315677642822,431.68422651290894 621.4368534088135,431.68422651290894 628.6736698150635,431.68422651290894 631.963098526001,431.68422651290894 637.226282119751,431.68422651290894 640.5157108306885,431.68422651290894 641.831506729126,431.68422651290894 " style="color: rgb(61, 177, 255);" class="" stroke-opacity="1"/><polyline fill="none" stroke="#0075c4" stroke-width="8" stroke-linejoin="round" stroke-dashoffset="" fill-rule="nonzero" marker-start="" marker-mid="" marker-end="" id="svg_9" points="390.5158041717605,140.23684627428617 390.5158041717605,140.23684627428617 " style="color: rgb(0, 117, 196);"/><polyline fill="none" stroke="#0075c4" stroke-width="8" stroke-linejoin="round" stroke-dashoffset="" fill-rule="nonzero" marker-start="" marker-mid="" marker-end="" id="svg_10" points="390.5158041717605,152.73684643114046 390.5158041717605,152.73684643114046 " style="color: rgb(0, 117, 196);"/><polyline fill="none" stroke="#3db1ff" stroke-width="2" stroke-linejoin="round" stroke-dashoffset="" fill-rule="nonzero" marker-start="" marker-mid="" marker-end="" id="svg_12" points="315.5158032306345,200.10526807816746 315.5158032306345,200.76316282326502 " style="color: rgb(0, 117, 196);"/><polyline fill="none" stroke="#3db1ff" stroke-width="8" stroke-linejoin="round" stroke-dashoffset="" fill-rule="nonzero" marker-start="" marker-mid="" marker-end="" id="svg_13" points="6.963165283203125,98.13158094882965 6.963165283203125,97.4736829996109 8.936851501464844,96.81579267978668 11.568428039550781,93.526318192482 16.831588745117188,89.57894575595856 29.331588745117188,80.36842024326324 35.91053771972656,75.10526716709137 46.436851501464844,67.86842024326324 56.305267333984375,61.2894788980484 70.77896118164062,52.73684751987457 81.96316528320312,46.81579267978668 89.85790252685547,42.86842405796051 99.06843566894531,38.921059250831604 108.27894592285156,34.97369062900543 120.77896118164062,31.026320099830627 129.3315887451172,29.710529923439026 139.20001220703125,28.394739747047424 149.0684356689453,27.73684561252594 162.226318359375,27.078949570655823 174.726318359375,27.078949570655823 188.54212951660156,27.078949570655823 204.33160400390625,29.710529923439026 223.4105224609375,33.6578985452652 236.56842041015625,36.2894788980484 248.41055297851562,38.921059250831604 260.9105529785156,41.55263578891754 271.4368591308594,45.50000441074371 281.3052978515625,49.447373032569885 290.51580810546875,54.710529923439026 299.0684509277344,58.6578985452652 306.3052978515625,63.263161301612854 313.5421142578125,67.86842024326324 317.489501953125,70.50000441074371 323.4105529785156,74.44736921787262 325.38421630859375,75.76315748691559 327.35791015625,77.07894575595856 332.6210632324219,79.71052992343903 333.9368591308594,80.36842024326324 335.9105529785156,81.026318192482 336.5684509277344,81.68420851230621 341.1737060546875,83.65789473056793 343.8052978515625,84.9736829996109 345.1210632324219,84.9736829996109 346.4368591308594,85.63158094882965 " style="color: rgb(0, 117, 196);" class=""/><polyline fill="none" stroke="#3db1ff" stroke-width="8" stroke-linejoin="round" stroke-dashoffset="" fill-rule="nonzero" marker-start="" marker-mid="" marker-end="" id="svg_14" points="141.83159828186035,467.8684678077698 141.83159828186035,467.8684678077698 142.4894962310791,467.8684678077698 142.4894962310791,467.8684678077698 154.98948860168457,459.9737229347229 183.936861038208,435.63162088394165 232.6210651397705,396.81582498550415 291.17370796203613,347.4737229347229 348.41055488586426,297.4736924171448 387.22635078430176,264.578978061676 433.936861038208,227.0789475440979 472.0947895050049,196.15789651870728 494.46316719055176,180.3684220314026 512.2263507843018,169.18420267105103 520.7789630889893,163.92104959487915 524.068452835083,161.9473557472229 524.7263507843018,161.9473557472229 525.3842487335205,161.2894730567932 525.3842487335205,161.2894730567932 525.3842487335205,161.9473557472229 525.3842487335205,161.9473557472229 525.3842487335205,161.9473557472229 525.3842487335205,161.9473557472229 525.3842487335205,161.9473557472229 526.0421466827393,161.9473557472229 526.0421466827393,162.60525369644165 526.0421466827393,162.60525369644165 526.0421466827393,162.60525369644165 526.0421466827393,162.60525369644165 526.0421466827393,162.60525369644165 526.0421466827393,162.60525369644165 526.0421466827393,163.2631516456604 526.0421466827393,163.2631516456604 526.700044631958,163.2631516456604 526.700044631958,163.2631516456604 526.700044631958,163.2631516456604 526.700044631958,163.92104959487915 526.700044631958,163.92104959487915 526.700044631958,163.92104959487915 526.700044631958,163.92104959487915 526.700044631958,164.5789475440979 526.700044631958,164.5789475440979 527.3579425811768,164.5789475440979 527.3579425811768,164.5789475440979 527.3579425811768,165.23684549331665 527.3579425811768,165.23684549331665 527.3579425811768,165.23684549331665 527.3579425811768,165.89472818374634 527.3579425811768,165.89472818374634 527.3579425811768,165.89472818374634 527.3579425811768,165.89472818374634 528.0158405303955,166.5526261329651 528.0158405303955,166.5526261329651 528.0158405303955,167.21052408218384 528.0158405303955,167.21052408218384 528.6737384796143,167.8684220314026 528.6737384796143,167.8684220314026 528.6737384796143,167.8684220314026 528.6737384796143,167.8684220314026 528.6737384796143,168.52631998062134 528.6737384796143,168.52631998062134 528.6737384796143,168.52631998062134 528.6737384796143,168.52631998062134 528.6737384796143,168.52631998062134 528.6737384796143,169.18420267105103 528.6737384796143,169.18420267105103 528.6737384796143,169.18420267105103 528.6737384796143,169.84210062026978 528.6737384796143,169.84210062026978 528.6737384796143,169.84210062026978 528.6737384796143,170.49999856948853 529.331636428833,170.49999856948853 529.331636428833,170.49999856948853 529.331636428833,170.49999856948853 529.331636428833,171.81579446792603 529.331636428833,175.76316690444946 529.331636428833,179.71052408218384 529.331636428833,188.2631516456604 529.9895343780518,199.44737100601196 529.9895343780518,215.23684549331665 529.9895343780518,228.3947434425354 529.9895343780518,243.5263352394104 529.9895343780518,254.71056985855103 529.9895343780518,263.9210801124573 528.6737384796143,275.7631821632385 524.7263507843018,289.578978061676 520.7789630889893,303.3947739601135 516.831636428833,316.5526719093323 514.200044631958,326.4210801124573 507.62109565734863,342.86843729019165 503.0158405303955,351.4210801124573 494.46316719055176,367.210569858551 488.54214668273926,375.7631821632385 477.35794258117676,390.2368760108948 474.068452835083,394.18423318862915 471.436861038208,396.81582498550415 470.1210651397705,398.13162088394165 468.80533027648926,398.7895188331604 466.831636428833,399.447386264801 464.85794258117676,400.7631821632385 462.22635078430176,402.078978061676 460.9105854034424,403.3947739601135 459.59475898742676,404.0526719093323 459.59475898742676,404.0526719093323 459.59475898742676,404.0526719093323 459.59475898742676,404.0526719093323 459.59475898742676,404.0526719093323 459.59475898742676,404.0526719093323 459.59475898742676,404.0526719093323 459.59475898742676,404.710569858551 460.2526569366455,404.710569858551 460.2526569366455,404.710569858551 460.2526569366455,404.710569858551 460.2526569366455,404.710569858551 460.9105854034424,404.710569858551 460.9105854034424,404.710569858551 461.56848335266113,404.710569858551 461.56848335266113,404.0526719093323 466.831636428833,403.3947739601135 472.7526569366455,402.7368760108948 483.2789936065674,401.4210801124573 501.04214668273926,398.7895188331604 525.3842487335205,394.18423318862915 557.6210651397705,386.947386264801 583.2789630889893,377.078978061676 610.910493850708,362.6052842140198 639.1999835968018,344.8421311378479 662.8842487335205,328.3947739601135 685.2526569366455,309.9737229347229 706.305269241333,292.2105393409729 726.042085647583,273.7894883155823 738.542085647583,261.2894730567932 749.0683917999268,249.44737100601196 756.9631671905518,240.23684549331665 762.8842487335205,232.34210062026978 766.8315753936768,227.0789475440979 772.0946979522705,217.21052408218384 775.3842487335205,210.63157510757446 779.331636428833,201.42104959487915 782.6210651397705,193.52631998062134 783.936861038208,189.5789475440979 786.568452835083,184.9736771583557 788.542085647583,179.71052408218384 789.8578815460205,177.0789475440979 789.8578815460205,175.10525369644165 790.5157794952393,173.13157510757446 791.173677444458,171.81579446792603 791.8315753936768,170.49999856948853 791.8315753936768,169.84210062026978 791.8315753936768,169.18420267105103 791.8315753936768,168.52631998062134 791.8315753936768,167.8684220314026 791.8315753936768,167.8684220314026 791.8315753936768,167.21052408218384 791.8315753936768,166.5526261329651 792.4894733428955,165.89472818374634 792.4894733428955,165.89472818374634 792.4894733428955,165.89472818374634 792.4894733428955,165.89472818374634 792.4894733428955,165.89472818374634 792.4894733428955,165.89472818374634 791.8315753936768,165.89472818374634 791.173677444458,165.89472818374634 789.1999835968018,165.89472818374634 787.8842487335205,165.89472818374634 785.910493850708,165.89472818374634 782.6210651397705,165.89472818374634 778.673677444458,166.5526261329651 774.7262897491455,167.21052408218384 770.778902053833,168.52631998062134 768.805269241333,169.84210062026978 766.8315753936768,171.15789651870728 764.8578815460205,173.13157510757446 760.910493850708,178.3947434425354 753.673677444458,188.2631516456604 746.436861038208,202.0789475440979 741.8315753936768,216.5526261329651 737.8842487335205,231.68420267105103 735.2526569366455,248.13157510757446 733.2789630889893,266.55264139175415 731.9631671905518,284.9737229347229 731.305269241333,296.81582498550415 730.647310256958,311.2894883155823 729.331636428833,327.078978061676 728.673677444458,333.00002908706665 728.0158405303955,340.2368760108948 727.3579425811768,344.18423318862915 727.3579425811768,347.4737229347229 727.3579425811768,348.7895188331604 727.3579425811768,349.447386264801 727.3579425811768,350.1052842140198 727.3579425811768,350.1052842140198 727.3579425811768,350.1052842140198 726.700044631958,350.1052842140198 726.700044631958,350.7631821632385 726.700044631958,350.1052842140198 726.700044631958,350.1052842140198 726.700044631958,350.1052842140198 726.700044631958,349.447386264801 726.700044631958,349.447386264801 726.700044631958,349.447386264801 " style="color: rgb(0, 117, 196);" class=""/><polyline fill="none" stroke="#3db1ff" stroke-width="8" stroke-linejoin="round" stroke-dashoffset="" fill-rule="nonzero" marker-start="" marker-mid="" marker-end="" id="svg_16" points="397.09475162273645,266.5526373330247 397.09475162273645,266.5526373330247 " style="color: rgb(0, 117, 196);"/></g></svg>