<svg xmlns="http://www.w3.org/2000/svg" xmlns:se="http://svg-edit.googlecode.com" xmlns:xlink="http://www.w3.org/1999/xlink" xmlns:dc="http://purl.org/dc/elements/1.1/" xmlns:cc="http://creativecommons.org/ns#" xmlns:rdf="http://www.w3.org/1999/02/22-rdf-syntax-ns#" xmlns:inkscape="http://www.inkscape.org/namespaces/inkscape" width="777" height="480" style="">                                    <title>my vector image</title>                                    <!-- Created with Vector Paint - http://www.vectorpaint.yaks.com/ https://chrome.google.com/webstore/detail/hnbpdiengicdefcjecjbnjnoifekhgdo -->                                    <rect id="backgroundrect" width="100%" height="100%" x="0" y="0" fill="#FFFFFF" stroke="none"/>                                <g class="currentLayer" style=""><title>Layer 1</title><polyline fill="none" stroke="#2b63ff" stroke-width="10" stroke-linejoin="round" stroke-dashoffset="" fill-rule="nonzero" marker-start="" marker-mid="" marker-end="" id="svg_17" points="384.4380829394967,376.7074823047194 384.4380829394967,376.7074823047194 " style="color: rgb(43, 99, 255);"/><polyline fill="none" stroke="#2b63ff" stroke-width="10" stroke-linejoin="round" stroke-dashoffset="" fill-rule="nonzero" marker-start="" marker-mid="" marker-end="" id="svg_19" points="385.1183550351003,376.7074823047194 385.1183550351003,376.7074823047194 " style="color: rgb(43, 99, 255);"/><polyline fill="none" stroke="#2b63ff" stroke-width="10" stroke-linejoin="round" stroke-dashoffset="" fill-rule="nonzero" marker-start="" marker-mid="" marker-end="" id="svg_40" points="-3.9972836501462012,74.66667185673089 -3.9972836501462012,74.66667185673089 -2.636739458939047,74.66667185673089 0.7646210190788381,74.66667185673089 5.5265256883038845,73.30612766552372 10.968702453132508,71.265311378713 17.09115131356471,69.22449509190224 22.53332807839333,66.50340670948793 27.975504843221948,65.1428625182808 36.13876999046489,61.061229944659324 46.34285142451855,56.97959737103785 56.54693285857221,52.897964797416385 66.0707421970223,50.17687641500208 76.95509572667953,47.45578803258777 88.51972135194035,44.734699650173454 98.72380278599402,44.05442755456987 114.37006098487632,44.05442755456987 128.65577499255144,44.05442755456987 147.70339366945163,44.734699650173454 164.02992396393748,48.13606012819134 176.27482168480188,51.537420606209224 186.47890311885556,54.938781084227124 195.32244036170206,58.340141562244995 203.485705508945,62.42177413586648 213.00951484739508,66.50340670948793 221.17277999463803,70.58503928310941 232.0571335242953,75.34694395233444 238.17958238472747,78.06803233474875 242.9414870539525,81.46939281276664 247.70339172317753,84.19048119518095 252.46529639240256,87.59184167319884 257.2272010616277,92.35374634242389 263.3496499220599,97.11565101164895 266.07073830447416,99.83673939406324 269.4720987824921,103.23809987208114 274.2340034517171,108.00000454130617 277.635363929735,110.72109292372048 281.0367244077529,113.44218130613478 283.7578127901672,116.1632696885491 285.79862907697793,118.88435807096343 287.8394453637886,121.60544645337775 289.8802616505994,123.64626274018846 292.6013500330137,127.04762321820635 296.0027105110316,130.44898369622425 301.4448872758602,135.21088836544928 304.8462477538781,137.9319767478636 306.8870640406888,139.97279303467434 307.5673361362924,140.6530651302779 308.247608231896,140.6530651302779 308.247608231896,141.33333722588148 308.247608231896,141.33333722588148 308.247608231896,141.33333722588148 308.247608231896,140.6530651302779 308.247608231896,139.97279303467434 " style="color: rgb(43, 99, 255);"/><polyline fill="none" stroke="#2b63ff" stroke-width="10" stroke-linejoin="round" stroke-dashoffset="" fill-rule="nonzero" marker-start="" marker-mid="" marker-end="" id="svg_41" points="11.648974895477295,416.84354877471924 12.329246997833252,416.16325092315674 14.370063066482544,414.802716255188 27.975504875183105,408.0000123977661 50.424482345581055,397.7959108352661 108.92788124084473,379.4285707473755 155.86665534973145,366.503399848938 202.12515449523926,354.25849628448486 242.26121711730957,338.61225605010986 276.27481269836426,322.96598529815674 307.5673236846924,304.5986452102661 325.25439643859863,290.31293964385986 355.186372756958,267.18366718292236 372.1931781768799,252.21769428253174 386.47891426086426,238.6122407913208 400.08435249328613,227.7278871536255 409.60815620422363,220.92516803741455 421.17276191711426,214.1224489212036 436.138765335083,207.99999713897705 444.30203437805176,204.5986452102661 455.8666400909424,201.87756061553955 470.15237617492676,199.15646076202393 478.9959125518799,198.47619342803955 486.47888374328613,198.47619342803955 493.9618854522705,198.47619342803955 502.80542182922363,198.47619342803955 510.9686908721924,199.15646076202393 519.1319599151611,200.51701068878174 526.6149616241455,202.55782794952393 532.7374286651611,204.5986452102661 544.3020038604736,210.72109699249268 555.1864032745361,217.5238161087036 569.4721088409424,228.40816974639893 579.6761493682861,235.89115619659424 585.1183490753174,239.9727907180786 589.2000141143799,243.3741579055786 590.5605487823486,245.41495990753174 591.2407855987549,245.41495990753174 591.2407855987549,246.0952272415161 591.2407855987549,246.0952272415161 591.9210834503174,246.0952272415161 591.9210834503174,246.0952272415161 592.6013202667236,246.0952272415161 592.6013202667236,246.0952272415161 593.2816181182861,246.0952272415161 594.6421527862549,246.0952272415161 595.3224506378174,246.7755250930786 596.6829853057861,246.7755250930786 600.0843524932861,246.7755250930786 604.1659564971924,246.7755250930786 611.6489887237549,246.0952272415161 623.2135639190674,243.3741579055786 632.0571308135986,242.01359272003174 644.3020038604736,239.29252338409424 657.9074726104736,235.21088886260986 673.5537128448486,229.76870441436768 690.5605487823486,223.64626789093018 700.7645893096924,218.88435077667236 710.9686908721924,213.44218158721924 721.8530292510986,204.5986452102661 727.2952289581299,198.47619342803955 731.3768329620361,193.03400897979736 734.7782001495361,186.91157245635986 737.4993305206299,182.14965534210205 740.2203998565674,176.02721881866455 742.9414691925049,169.2244997024536 745.6625385284424,160.3809633255005 748.3836688995361,152.21769428253174 751.1047382354736,133.85033893585205 751.7850360870361,125.00680255889893 751.7850360870361,116.1632661819458 751.7850360870361,110.04082202911377 751.7850360870361,107.31972980499268 751.7850360870361,105.9591875076294 751.1047382354736,103.9183702468872 748.3836688995361,99.83673572540283 744.9823017120361,95.07483386993408 739.5401020050049,88.27211475372314 735.4584980010986,85.55102252960205 732.7373676300049,84.19048023223877 730.6965961456299,83.51020526885986 725.2543964385986,83.51020526885986 716.4108905792236,83.51020526885986 693.9619159698486,83.51020526885986 674.9142475128174,83.51020526885986 657.9074726104736,86.23129749298096 638.1795673370361,88.95238208770752 625.2543964385986,92.35374927520752 615.7305927276611,96.43537616729736 605.5264911651611,103.23810291290283 598.7238178253174,108.68027973175049 593.9619159698486,112.76191425323486 590.5605487823486,115.48299884796143 589.2000141143799,116.84354877471924 588.5197162628174,117.52381610870361 583.7578144073486,122.96598529815674 579.6761493682861,127.04761981964111 572.1931781768799,135.89115619659424 562.6693744659424,147.455792427063 552.4652729034424,161.06123065948486 540.9006366729736,176.70748615264893 527.2952289581299,195.07482624053955 513.689790725708,213.44218158721924 500.7646198272705,231.1292543411255 483.07754707336426,252.8979616165161 476.27481269836426,262.4217653274536 466.75100898742676,273.306134223938 455.186372756958,288.2721071243286 445.6625690460205,300.51701068878174 435.45849800109863,315.48298358917236 424.57412910461426,333.1700563430786 414.3700580596924,348.13605976104736 398.0435199737549,370.58503437042236 391.240816116333,380.78910541534424 382.3972797393799,392.353741645813 374.9142780303955,403.23808002471924 368.1115436553955,411.401349067688 361.989107131958,418.88435077667236 355.8666400909424,425.68708515167236 349.0639362335205,431.80952167510986 " style="color: rgb(43, 99, 255);" class=""/><polyline fill="none" stroke="#2b63ff" stroke-width="10" stroke-linejoin="round" stroke-dashoffset="" fill-rule="nonzero" marker-start="" marker-mid="" marker-end="" id="svg_42" points="778.9958992004395,310.04082107543945 778.9958992004395,310.7210884094238 775.5945320129395,313.44218826293945 769.472095489502,318.8843574523926 752.465259552002,333.1700630187988 732.7374153137207,348.1360664367676 709.6081428527832,365.1428413391113 694.6421394348145,376.7074775695801 667.4312629699707,397.7959175109863 653.1455574035645,407.9999885559082 644.3020515441895,414.1224555969238 627.975513458252,425.68706130981445 613.6898078918457,433.8503303527832 598.723804473877,440.6530647277832 583.077564239502,446.0952339172363 572.1931648254395,448.81633377075195 558.5877571105957,452.2176704406738 541.5809211730957,456.9795722961426 526.6149787902832,461.06120681762695 515.0503425598145,464.46257400512695 504.1659736633301,467.1836738586426 494.6421699523926,468.5442085266113 486.4789009094238,469.9047431945801 478.99589920043945,471.26530838012695 471.5128974914551,472.6258430480957 465.3904609680176,473.98637771606445 463.34965896606445,473.98637771606445 457.9074592590332,473.98637771606445 455.1863899230957,473.98637771606445 453.14555740356445,473.3061103820801 451.1047554016113,472.6258430480957 450.42448806762695,471.9455757141113 449.0639228820801,471.26530838012695 449.0639228820801,471.26530838012695 " style="color: rgb(43, 99, 255);" class=""/><polyline fill="none" stroke="#2b63ff" stroke-width="10" stroke-linejoin="round" stroke-dashoffset="" fill-rule="nonzero" marker-start="" marker-mid="" marker-end="" id="svg_43" points="775.5945539474487,49.496604919433594 775.5945539474487,49.496604919433594 772.873423576355,49.496604919433594 763.3496198654175,49.496604919433594 736.8190412521362,49.496604919433594 701.4448957443237,49.496604919433594 655.8666486740112,49.496604919433594 623.2135725021362,49.496604919433594 594.6421613693237,52.89796447753906 568.7918195724487,58.34014129638672 538.179575920105,67.86395263671875 515.73060131073,74.66667175292969 496.68296337127686,80.78911972045898 479.6761884689331,87.59183883666992 465.39045238494873,94.39456558227539 448.38364696502686,103.91836929321289 420.49250316619873,121.60544967651367 403.48569774627686,134.53061294555664 393.281626701355,142.6938819885254 375.59455394744873,158.34013748168945 364.71018505096436,169.90475845336914 357.2272138595581,179.4285774230957 349.06394481658936,189.63266372680664 342.26121044158936,198.47620010375977 334.0979413986206,208.00000381469727 330.6965742111206,212.76190567016602 327.9755048751831,216.16327285766602 326.61493968963623,218.2040901184082 325.93467235565186,220.2449073791504 325.2544050216675,220.2449073791504 324.5741376876831,220.92517471313477 324.5741376876831,220.92517471313477 324.5741376876831,220.92517471313477 323.89387035369873,221.60544204711914 322.53333568573,222.28570938110352 319.13196849823,225.68707656860352 315.0503339767456,229.08844375610352 308.92786693573,233.85034561157227 299.4040632247925,238.61224746704102 289.880259513855,243.37414932250977 270.1523847579956,248.13605117797852 242.9414930343628,251.53741836547852 232.73740673065186,252.2176856994629 218.45168590545654,253.5782356262207 197.36326122283936,254.25850296020508 186.47890758514404,254.93877029418945 176.2748212814331,254.93877029418945 166.07073497772217,255.6190528869629 155.8666639328003,255.6190528869629 144.98231029510498,255.6190528869629 136.81904125213623,255.6190528869629 129.33603954315186,255.6190528869629 124.5741376876831,254.25850296020508 115.73060131072998,252.89796829223633 112.32924175262451,252.2176856994629 108.92788219451904,251.53741836547852 106.88706493377686,251.53741836547852 104.8462553024292,250.85715103149414 103.48570537567139,250.85715103149414 103.48570537567139,250.85715103149414 102.80543804168701,250.85715103149414 " style="color: rgb(43, 99, 255);" class=""/><path fill="none" fill-opacity="1" stroke="#2b63ff" stroke-opacity="1" stroke-width="10" stroke-dasharray="none" stroke-linejoin="round" stroke-linecap="butt" stroke-dashoffset="" fill-rule="nonzero" opacity="1" marker-start="" marker-mid="" marker-end="" id="svg_44" d="M-12.160552024841309,501.8775587081909 C-10.800009727478027,501.8775587081909 -9.26709270477295,500.73537731170654 -0.5959272384643555,493.71428966522217 C18.155842781066895,478.5308485031128 41.01036548614502,457.93520641326904 85.79862689971924,436.57143688201904 C122.96967792510986,418.8410291671753 188.32490253448486,398.48577404022217 255.18636798858643,379.4285840988159 C339.3035249710083,355.4530897140503 430.4729280471802,334.1019239425659 491.9210786819458,322.28570079803467 C589.5567598342896,303.51076793670654 638.751950263977,298.1375684738159 678.9959077835083,296.4353895187378 C705.5028047561646,295.31423473358154 731.3945894241333,295.7579298019409 744.301999092102,296.4353895187378 C757.2806978225708,297.11660289764404 751.3618745803833,266.7089033126831 727.2952241897583,248.13605785369873 C690.5433931350708,219.77367687225342 654.227292060852,201.78313732147217 606.206784248352,177.38775157928467 C578.5396699905396,163.33228588104248 557.5662202835083,153.49878978729248 532.057126045227,138.6122465133667 C523.0886812210083,133.37844371795654 516.8422212600708,128.29153728485107 513.009518623352,120.92517375946045 C509.3344087600708,113.86165142059326 509.2683687210083,106.66260051727295 508.92785358428955,99.15646648406982 C508.6812105178833,93.71988201141357 510.7809419631958,86.76005840301514 513.009518623352,84.1904821395874 C514.2701997756958,82.73691844940186 515.0503511428833,82.82993602752686 515.0503511428833,82.82993602752686 C515.0503511428833,82.82993602752686 515.0503511428833,81.46939373016357 515.0503511428833,81.46939373016357 C515.0503511428833,80.78912258148193 515.0503511428833,80.10884761810303 515.0503511428833,79.42857646942139 C515.0503511428833,79.42857646942139 515.0503511428833,78.74830532073975 515.0503511428833,78.74830532073975 C515.0503511428833,78.74830532073975 515.0503511428833,78.0680341720581 515.0503511428833,78.0680341720581 C515.0503511428833,76.70748805999756 515.0503511428833,76.02721691131592 515.0503511428833,75.34694576263428 C515.0503511428833,74.66667079925537 515.0503511428833,74.66667079925537 515.0503511428833,74.66667079925537 C515.7305879592896,73.30612850189209 515.7305879592896,71.94559383392334 516.410885810852,70.58504009246826 C517.0911226272583,69.22450542449951 517.0911226272583,67.86395168304443 517.0911226272583,67.1836805343628 C517.0911226272583,67.1836805343628 518.1021699905396,67.30356884002686 518.451657295227,65.82313442230225 C518.7642183303833,64.49898433685303 519.3506441116333,62.5516996383667 520.4924898147583,60.38095760345459 C522.1979341506958,57.13878536224365 525.1676607131958,52.82084178924561 530.0162935256958,47.45578861236572 C539.3751192092896,37.10017490386963 546.1185274124146,30.844385147094727 553.8258028030396,25.00680899620056 C560.4451875686646,19.993189811706543 567.6047945022583,14.012377262115479 575.5945405960083,12.081639289855957 C645.1033906936646,-4.715264320373535 677.6353731155396,8.680278778076172 687.8394136428833,8.680278778076172 C689.8802461624146,8.680278778076172 691.2407808303833,8.680278778076172 691.2407808303833,8.680278778076172 L691.2407808303833,8.000006675720215 L691.2407808303833,7.319734573364258 L690.560544013977,7.319734573364258 " style="color: rgb(43, 99, 255);" class=""/></g><defs><filter id="f013" inkscape:label="Bloom" inkscape:menu="Bevels" inkscape:menu-tooltip="Soft, cushion-like bevel with matte highlights" color-interpolation-filters="sRGB">
            <feGaussianBlur result="result1" in="SourceAlpha" stdDeviation="2.2"/>
            <feSpecularLighting result="result0" specularExponent="18.1" specularConstant="2" surfaceScale="5">
                <feDistantLight azimuth="225" elevation="24"/>
            </feSpecularLighting>
            <feComposite result="result6" operator="in" in2="SourceAlpha"/>
            <feMorphology radius="5.7" operator="dilate"/>
            <feGaussianBlur result="result11" stdDeviation="5.7"/>
            <feDiffuseLighting surfaceScale="5" result="result3" diffuseConstant="2" in="result1">
                <feDistantLight elevation="25" azimuth="225"/>
            </feDiffuseLighting>
            <feBlend result="result7" mode="multiply" in="result3" in2="SourceGraphic"/>
            <feComposite in="result7" operator="in" in2="SourceAlpha" result="result91"/>
            <feBlend result="result9" mode="lighten" in="result6" in2="result91"/>
            <feComposite in="result11" in2="result9"/>
        </filter></defs></svg>